<?xml version="1.0" encoding="utf-8"?>
<!-- Generator: Adobe Illustrator 27.3.1, SVG Export Plug-In . SVG Version: 6.00 Build 0)  -->
<svg version="1.1" id="Capa_1" xmlns="http://www.w3.org/2000/svg" xmlns:xlink="http://www.w3.org/1999/xlink" x="0px" y="0px"
	 viewBox="0 0 1440 700" style="enable-background:new 0 0 1440 700;" xml:space="preserve">
<style type="text/css">
	.st0{fill:#FFFFFF;}
	.st1{font-family:'LaObrige-PersonalUse';}
	.st2{font-size:51.3974px;}
	.st3{fill:#FF0084;}
	.st4{font-family:'BodoniMT';}
	.st5{font-size:135.2536px;}
	.st6{font-size:164.6798px;}
	.st7{font-family:'Helvetica-Bold';}
	.st8{font-size:12.9529px;}
	.st9{font-size:17.2984px;}
	.st10{font-size:13.8566px;}
	.st11{fill:none;stroke:#000000;stroke-width:4;stroke-miterlimit:10;}
	.st12{fill:none;}
	.st13{fill:#FFE8E8;}
	.st14{fill:#5C5C5C;}
	.st15{font-family:'ArialMT';}
	.st16{font-size:21px;}
	.st17{font-size:23px;}
	.st18{font-size:100.7196px;}
	.st19{font-size:28.25px;}
	.st20{fill:none;stroke:#000000;stroke-width:8;stroke-miterlimit:10;}
</style>
<rect y="0" class="st0" width="1440.5" height="700"/>
<text transform="matrix(1 0 0 1 32.1008 636.0005)" class="st1 st2">3?</text>
<text transform="matrix(1 0 0 1 1245.2188 490.0693)" class="st3 st4 st5">?</text>
<text transform="matrix(-1.0272 0 0 -1 785.7324 154.8732)" class="st3 st4 st6">?</text>
<rect x="1326.5" y="0" width="114" height="700"/>
<g>
	
		<image style="overflow:visible;enable-background:new    ;" width="8862" height="5582" xlink:href="CEB3A93E.png"  transform="matrix(1.117331e-02 0 0 1.136933e-02 246.0045 10.3531)">
	</image>
	<text transform="matrix(0.9802 0 0 1 253.0181 88.2922)" class="st7 st8">FOTOGRAFÍA</text>
</g>
<text transform="matrix(0.9802 0 0 1 507.6543 53.1027)" class="st7 st9">SESIONES</text>
<text transform="matrix(0 -1 1 0 66.4016 548.0529)" class="st7 st10">NOHEMY LOBO                         PHOTOGRAPHY                          2023</text>
<text transform="matrix(0.9802 0 0 1 690.6377 54.5056)" class="st7 st9">MAQUILLAJE</text>
<text transform="matrix(0.9802 0 0 1 875.7275 53.1017)" class="st7 st9">PAQUETES</text>
<text transform="matrix(0.9802 0 0 1 1045.0049 54.5051)" class="st7 st9">CONTACTO</text>
<line class="st11" x1="102.5" y1="667.5" x2="1355.5" y2="667.5"/>
<line class="st11" x1="94.2" y1="94.5" x2="1342.2" y2="94.5"/>
<line class="st11" x1="557" y1="94.5" x2="557" y2="667.5"/>
<g>
	<line class="st12" x1="1084" y1="128.5" x2="1103.6" y2="114.8"/>
	<path class="st3" d="M1083.9,128.3c1.4-1.5,2.9-2.9,4.3-4.3l2.2-2.1l2.3-2c0.8-0.7,1.5-1.4,2.2-2.1s1.5-1.3,2.4-1.7
		c1.8-0.9,3.8-1.6,6.2-1.6h0.3l0.1,0.1l-0.1,0.3c-0.8,2.3-2.2,3.9-3.6,5.3c-0.7,0.7-1.6,1.3-2.5,1.7c-0.9,0.4-1.8,0.8-2.7,1.3
		l-2.7,1.4l-2.7,1.4c-1.8,0.9-3.6,1.8-5.5,2.6l-0.2,0.1l-0.2-0.3L1083.9,128.3z"/>
</g>
<ellipse class="st13" cx="1056.9" cy="329.8" rx="206.8" ry="208.1"/>
<rect x="985.6" y="535.5" class="st12" width="290.4" height="206.6"/>
<text transform="matrix(1 0 0 1 945.39 555.95)" class="st14 st15 st16">Me encanta retratar identidades unicas, </text>
<text transform="matrix(1 0 0 1 959.0399 581.15)" class="st14 st15 st16">experimentar mucho y crear historias.</text>
<text transform="matrix(1 0 0 1 1007.1699 606.35)" class="st14 st15 st16">Cuéntame tu idea y la haremos </text>
<text transform="matrix(1 0 0 1 1168.4299 631.55)" class="st14 st15 st16">realidad!</text>
<rect x="611" y="328.9" class="st12" width="259.4" height="206.6"/>
<text transform="matrix(1 0 0 1 611.0459 346.2672)" class="st14 st15 st17">Hola!</text>
<text transform="matrix(1 0 0 1 611.0459 373.8672)" class="st14 st15 st17">Mi nombre es Nohemy, </text>
<text transform="matrix(1 0 0 1 611.0459 401.4672)" class="st14 st15 st17">principalmente me dedico a la </text>
<text transform="matrix(1 0 0 1 611.0459 429.0673)" class="st14 st15 st17">fotografía social, editorial, </text>
<text transform="matrix(1 0 0 1 611.0459 456.6672)" class="st14 st15 st17">connceptual y artística, entre </text>
<text transform="matrix(1 0 0 1 611.0459 484.2672)" class="st14 st15 st17">otras.</text>
<image style="overflow:visible;enable-background:new    ;" width="3258" height="4887" xlink:href="CEB3A942.png"  transform="matrix(0.1147 0 0 0.1147 149.4813 102)">
</image>
<text transform="matrix(1.0272 0 0 1 720.96 260.6359)" class="st3 st1 st18">¿QUIEN </text>
<text transform="matrix(1.0272 0 0 1 963.5654 381.4953)" class="st3 st1 st18">SOY </text>
<text transform="matrix(1.0272 0 0 1 1031.1328 502.3654)" class="st3 st1 st18">YO?</text>
<path d="M577.8,593.8L577.8,593.8c0-23.2,18.8-42,42-42h222c23.2,0,42,18.8,42,42l0,0c0,23.2-18.8,42-42,42h-222
	C596.6,635.8,577.8,617,577.8,593.8z"/>
<rect x="666" y="579" class="st12" width="192" height="24"/>
<text transform="matrix(1 0 0 1 656.9999 599.3048)" class="st0 st7 st19">AGENDAR</text>
<g>
	<ellipse class="st11" cx="1247.9" cy="39.8" rx="13.1" ry="12.4"/>
	<line class="st20" x1="1219" y1="67.4" x2="1238.7" y2="48.7"/>
</g>
</svg>
